<svg fill="none" viewBox="0 0 158 39" id="sprite--logo" xmlns="http://www.w3.org/2000/svg">
  <path fill-rule="evenodd" clip-rule="evenodd"
    d="M157.976 25.097c-10.99-11.4-17.233-14.94-32.835-20.623C104.495-3.047 78.694.836 57.242 2.423c20.867-1.035 47.19-3.099 67.456 3.199 15.542 4.83 22.26 8.595 33.278 19.475z"
    fill="currentColor"></path>
  <path fill-rule="evenodd" clip-rule="evenodd"
    d="M26.323 10.324c-.787-2.27-2.132-2.27-2.361-2.27h-1.87L15.467 29.2s.197.033.459.033c.787 0 2.329-.26 2.985-2.4.197-.584.557-1.752 1.016-3.18h7.938c.426 1.428.82 2.4 1.05 3.115.688 2.075 2.033 2.465 2.919 2.465.557 0 .852-.163.852-.163s-5.51-16.346-6.363-18.746zm-5.707 11.124c1.214-3.73 2.624-8.238 3.247-10.184.46 1.59 2.067 6.228 3.313 10.184h-6.56zm23.7 5.157c0 2.206 1.542 2.628 2.625 2.628V15.237c0-2.248-1.51-2.61-2.624-2.61v7.265h-6.593v-4.655c0-2.216-1.508-2.61-2.656-2.61v14.01c0 2.206 1.508 2.596 2.656 2.596V22h6.593v4.605zm16.518-13.978h-9.216c-1.935 0-2.263 1.2-2.263 1.88 0 .26.065.422.131.552h4.264v11.546c0 2.238 1.509 2.433 2.657 2.628V15.059h2.919c1.64 0 1.673-1.751 1.673-2.27l-.165-.162zm8.187 0c-6.199 0-6.56 5.767-6.56 8.205 0 3.438 1.181 8.855 7.216 8.855 2.821 0 5.478-1.72 5.478-4.347 0-.259-.033-.55-.099-.843 0 0-1.377 2.465-5.576 2.465-2.951 0-4.23-2.724-4.395-5.06h9.938c.066-.551.099-1.135.099-1.718 0-3.855-1.476-7.557-6.1-7.557zM65.184 19.6c.131-2.255.82-4.509 3.673-4.509 3.116 0 3.641 2.746 3.674 4.509h-7.347zm23.668 7.005c0 2.206 1.541 2.628 2.623 2.628V15.237c0-2.248-1.508-2.61-2.623-2.61v7.265h-6.593v-4.655c0-2.216-1.509-2.61-2.657-2.61v14.01c0 2.206 1.51 2.596 2.657 2.596V22h6.593v4.605zm36.511-13.978c-6.199 0-6.559 5.767-6.559 8.205 0 3.438 1.181 8.855 7.216 8.855 2.82 0 5.477-1.72 5.477-4.347 0-.259-.033-.55-.098-.843 0 0-1.378 2.465-5.576 2.465-2.952 0-4.231-2.724-4.395-5.06h9.938c.066-.551.098-1.135.098-1.718 0-3.855-1.476-7.557-6.101-7.557zm-3.837 6.973c.131-2.255.82-4.509 3.674-4.509 3.115 0 3.64 2.746 3.673 4.509h-7.347zm15.206 9.633h10.495v2.627h.296c1.05-.033 2.263-.098 2.263-1.168v-2.854c0-.908-.886-1.135-1.804-1.168V12.627H137.29v13.395c0 .875-.263 1.46-.722 1.46-1.181 0-2.394.096-2.394 1.167v3.21h.295c1.049-.064 2.263-.097 2.263-1.2v-1.426zm8.757-14.239v11.741h-5.772c.032-.292.065-.584.065-.746V14.994h5.707zm-41.858 12.584s.459 1.655 1.706 1.655h1.377l.591-1.655c.524-1.427 1.049-2.951 1.541-4.378 1.083-2.951 2.198-6.033 3.378-9.211v12.973c.132 2.27.985 2.27 2.591 2.27V8.055h-.229c-1.214 0-2.525.032-3.247 1.362l-5.871 16.378c-.197-.518-3.542-9.762-5.379-14.951-.755-2.173-1.378-2.79-3.74-2.79h-.229v21.18c1.574 0 2.46 0 2.591-2.238v-12.91l4.92 13.492z"
    fill="currentColor"></path>
  <path fill-rule="evenodd" clip-rule="evenodd"
    d="M0 12.61c10.765 11.607 16.938 15.265 32.427 21.246 20.495 7.914 46.367 4.524 67.845 3.346-20.882.637-47.241 2.198-67.38-4.485C17.447 27.59 10.803 23.698 0 12.61zm150.441-2.117V7.85h1.137c.285 0 .493.024.622.071a.61.61 0 01.311.253c.078.122.117.26.117.416a.7.7 0 01-.176.492c-.117.129-.293.21-.527.244.117.067.213.14.288.221.076.08.178.224.306.43l.326.515h-.646l-.386-.577a3.617 3.617 0 00-.286-.388.416.416 0 00-.162-.109.91.91 0 00-.273-.03h-.11v1.104h-.541zm.541-1.524h.4c.259 0 .42-.011.484-.033a.29.29 0 00.151-.112.338.338 0 00.055-.198c0-.09-.024-.16-.072-.216a.329.329 0 00-.203-.103 4.46 4.46 0 00-.393-.01h-.422v.672z"
    fill="currentColor"></path>
  <path
    d="M151.322 6.897c1.27 0 2.3 1.018 2.3 2.274 0 1.257-1.03 2.275-2.3 2.275-1.271 0-2.301-1.018-2.301-2.274 0-1.257 1.03-2.275 2.301-2.275z"
    stroke="currentColor" stroke-width=".567"></path>
</svg>